<?xml version="1.0" standalone="no"?><!DOCTYPE svg PUBLIC "-//W3C//DTD SVG 1.1//EN" "http://www.w3.org/Graphics/SVG/1.1/DTD/svg11.dtd"><svg t="1716358934892" class="icon" viewBox="0 0 1024 1024" version="1.1" xmlns="http://www.w3.org/2000/svg" p-id="1208" xmlns:xlink="http://www.w3.org/1999/xlink" width="200" height="200"><path d="M509.9008 513.1264m-450.816 0a450.816 450.816 0 1 0 901.632 0 450.816 450.816 0 1 0-901.632 0Z" fill="#FFF1DC" p-id="1209"></path><path d="M801.792 397.7728a40.96 40.96 0 0 0-29.2864 12.3392q-24.4224-65.28-48.9472-130.6112c-10.24-27.1872-29.5936-40.6528-58.5728-40.6528H354.0992c-28.928 0-48.384 13.6192-58.5728 40.96l-48.9472 130.56a40.96 40.96 0 0 0-70.3488 28.7232v31.5904a40.96 40.96 0 0 0 49.5104 40.192v224.9728a22.784 22.784 0 0 0 24.576 24.6784h40.96c15.7696 0 24.832-9.3184 24.9344-25.1904v-30.72h385.8944a8.3968 8.3968 0 0 1 0.5632 1.8944v29.7984a22.8352 22.8352 0 0 0 24.2176 24.3712h39.5264c18.2272 0 26.8288-8.6528 26.8288-26.9824V510.976a41.8304 41.8304 0 0 0 8.448 0.8704 40.96 40.96 0 0 0 40.96-40.96v-32.0512a40.96 40.96 0 0 0-40.8576-41.0624zM350.464 624.64a45.6192 45.6192 0 1 1 0.512-91.1872 45.6192 45.6192 0 0 1-0.512 91.1872z m318.208 0a45.6192 45.6192 0 0 1 0-91.1872 45.6192 45.6192 0 1 1 0 91.1872zM286.1568 465.3568c7.4752-19.9168 14.592-38.912 21.76-57.9072 13.2096-35.0208 26.5216-69.9904 39.424-105.1648a9.3696 9.3696 0 0 1 10.6496-7.3216q151.7056 0.3072 303.36 0c5.12 0 8.0384 0.6144 10.24 6.0928 19.3536 52.5824 39.0656 105.0112 58.6752 157.4912 0.768 2.048 1.28 4.1472 2.0992 6.7584z" fill="#FC7032" p-id="1210"></path><path d="M772.5056 410.112q-24.4224-65.28-48.9472-130.6112c-10.24-27.1872-29.5936-40.6528-58.5728-40.6528H354.0992c-28.928 0-48.384 13.6192-58.5728 40.96l-48.9472 130.56a40.96 40.96 0 0 0-70.3488 28.7232v31.5904a40.96 40.96 0 0 0 49.5104 40.192v224.9728a22.784 22.784 0 0 0 24.576 24.6784h40.96c15.7696 0 24.832-9.3184 24.9344-25.1904v-30.72h291.84a450.56 450.56 0 0 0 186.112-305.664 40.96 40.96 0 0 0-21.6576 11.1616zM350.464 624.64a45.6192 45.6192 0 1 1 0.512-91.1872 45.6192 45.6192 0 0 1-0.512 91.1872z m318.208 0a45.6192 45.6192 0 0 1 0-91.1872 45.6192 45.6192 0 1 1 0 91.1872zM286.1568 465.3568c7.4752-19.9168 14.592-38.912 21.76-57.9072 13.2096-35.0208 26.5216-69.9904 39.424-105.1648a9.3696 9.3696 0 0 1 10.6496-7.3216q151.7056 0.3072 303.36 0c5.12 0 7.9872 0.6144 10.24 6.0928 19.3536 52.5824 39.0656 105.0112 58.6752 157.4912 0.768 2.048 1.28 4.1472 2.0992 6.7584z" fill="#FF7E3E" p-id="1211"></path><path d="M307.9168 407.4496c13.2096-35.0208 26.5216-69.9904 39.424-105.1648a9.3696 9.3696 0 0 1 10.6496-7.3216q150.6304 0.3072 301.312 0A440.6272 440.6272 0 0 0 670.72 239.0528H354.0992c-28.928 0-48.384 13.6192-58.5728 40.96l-48.9472 130.56a40.96 40.96 0 0 0-70.3488 28.7232v31.5904a40.96 40.96 0 0 0 49.5104 40.192v116.1728a452.7104 452.7104 0 0 0 98.2016-11.008 45.2096 45.2096 0 0 1 27.0336-82.2784 45.1072 45.1072 0 0 1 44.9024 45.7728 45.7728 45.7728 0 0 1-2.5088 14.7968 452.096 452.096 0 0 0 176.7424-128.7168H286.1568c7.4752-20.3776 14.592-39.3728 21.76-58.368z" fill="#FF9552" p-id="1212"></path><path d="M301.2096 425.2672l6.7072-17.8176c13.2096-35.0208 26.5216-69.9904 39.424-105.1648a9.3696 9.3696 0 0 1 10.6496-7.3216h107.52a449.3312 449.3312 0 0 0 37.7856-56.32H354.0992c-28.928 0-48.384 13.6192-58.5728 40.96l-48.9472 130.56a40.96 40.96 0 0 0-70.3488 28.7232v23.7568a447.6928 447.6928 0 0 0 124.9792-37.376z" fill="#FFA56A" p-id="1213"></path></svg>